<svg xmlns="http://www.w3.org/2000/svg" xmlns:xlink="http://www.w3.org/1999/xlink" width="898pt" height="917pt" viewBox="0 0 898 917"><g id="graph0" class="graph" transform="scale(1 1) rotate(0) translate(4 913)"><title>D</title><polygon fill="#fff" stroke="none" points="-4 4 -4 -913 894 -913 894 4 -4 4"/><g id="node1" class="node"><title>works</title><polygon fill="#ffc62c" stroke="none" points="549 -909 415 -909 415 -584 549 -584 549 -909"/><text x="460.5" y="-895.3" font-family="Arial" font-size="14" font-weight="bold" text-anchor="start">works</text><text x="418" y="-875.3" font-family="Arial" font-size="14" text-anchor="start">id</text><text x="418" y="-860.3" font-family="Arial" font-size="14" text-anchor="start">container_id</text><text x="418" y="-845.3" font-family="Arial" font-size="14" text-anchor="start">doi</text><text x="418" y="-830.3" font-family="Arial" font-size="14" text-anchor="start">title</text><text x="418" y="-815.3" font-family="Arial" font-size="14" text-anchor="start">published_year</text><text x="418" y="-800.3" font-family="Arial" font-size="14" text-anchor="start">published_month</text><text x="418" y="-785.3" font-family="Arial" font-size="14" text-anchor="start">published_day</text><text x="418" y="-770.3" font-family="Arial" font-size="14" text-anchor="start">short_container_title</text><text x="418" y="-755.3" font-family="Arial" font-size="14" text-anchor="start">container_title</text><text x="418" y="-740.3" font-family="Arial" font-size="14" text-anchor="start">publisher</text><text x="418" y="-725.3" font-family="Arial" font-size="14" text-anchor="start">abstract</text><text x="418" y="-710.3" font-family="Arial" font-size="14" text-anchor="start">type</text><text x="418" y="-695.3" font-family="Arial" font-size="14" text-anchor="start">subtype</text><text x="418" y="-680.3" font-family="Arial" font-size="14" text-anchor="start">page</text><text x="418" y="-665.3" font-family="Arial" font-size="14" text-anchor="start">volume</text><text x="418" y="-650.3" font-family="Arial" font-size="14" text-anchor="start">article_number</text><text x="418" y="-635.3" font-family="Arial" font-size="14" text-anchor="start">journal_issue</text><text x="418" y="-620.3" font-family="Arial" font-size="14" text-anchor="start">issn_print</text><text x="418" y="-605.3" font-family="Arial" font-size="14" text-anchor="start">issn_electronic</text><text x="418" y="-590.3" font-family="Arial" font-size="14" text-anchor="start">update_count</text><polygon fill="#000" stroke="#000" points="415 -888.5 415 -888.5 549 -888.5 549 -888.5 415 -888.5"/><polygon fill="none" stroke="#000" points="415 -584 415 -909 549 -909 549 -584 415 -584"/></g><g id="node2" class="node"><title>work_authors</title><polygon fill="#ffc62c" stroke="none" points="131 -422 1 -422 1 -232 131 -232 131 -422"/><text x="17.5" y="-408.8" font-family="Arial" font-size="14" font-weight="bold" text-anchor="start">work_authors</text><text x="4" y="-388.8" font-family="Arial" font-size="14" text-anchor="start">id</text><text x="4" y="-373.8" font-family="Arial" font-size="14" text-anchor="start">container_id</text><text x="4" y="-358.8" font-family="Arial" font-size="14" text-anchor="start">work_id</text><text x="4" y="-343.8" font-family="Arial" font-size="14" text-anchor="start">orcid</text><text x="4" y="-328.8" font-family="Arial" font-size="14" text-anchor="start">suffix</text><text x="4" y="-313.8" font-family="Arial" font-size="14" text-anchor="start">given</text><text x="4" y="-298.8" font-family="Arial" font-size="14" text-anchor="start">family</text><text x="4" y="-283.8" font-family="Arial" font-size="14" text-anchor="start">name</text><text x="4" y="-268.8" font-family="Arial" font-size="14" text-anchor="start">authenticated_orcid</text><text x="4" y="-253.8" font-family="Arial" font-size="14" text-anchor="start">prefix</text><text x="4" y="-238.8" font-family="Arial" font-size="14" text-anchor="start">sequence</text><polygon fill="#000" stroke="#000" points="1 -402 1 -402 131 -402 131 -402 1 -402"/><polygon fill="none" stroke="#000" points="1 -232 1 -422 131 -422 131 -232 1 -232"/></g><g id="edge1" class="edge"><title>works-&gt;work_authors</title><path fill="none" stroke="#000" d="M414.691,-714.729C338.575,-676.857 215.445,-605.859 140,-512 118.968,-485.835 103.223,-452.91 91.7875,-422.17"/><text x="75.287" y="-425.97" font-family="Arial" font-size="14" text-anchor="middle">1…N</text><text x="410.191" y="-718.529" font-family="Arial" font-size="14" text-anchor="middle">1</text></g><g id="node4" class="node"><title>work_references</title><polygon fill="#ffc62c" stroke="none" points="285 -512 149 -512 149 -142 285 -142 285 -512"/><text x="158" y="-498.8" font-family="Arial" font-size="14" font-weight="bold" text-anchor="start">work_references</text><text x="152" y="-478.8" font-family="Arial" font-size="14" text-anchor="start">work_id</text><text x="152" y="-463.8" font-family="Arial" font-size="14" text-anchor="start">container_id</text><text x="152" y="-448.8" font-family="Arial" font-size="14" text-anchor="start">issn</text><text x="152" y="-433.8" font-family="Arial" font-size="14" text-anchor="start">standards_body</text><text x="152" y="-418.8" font-family="Arial" font-size="14" text-anchor="start">issue</text><text x="152" y="-403.8" font-family="Arial" font-size="14" text-anchor="start">key</text><text x="152" y="-388.8" font-family="Arial" font-size="14" text-anchor="start">series_title</text><text x="152" y="-373.8" font-family="Arial" font-size="14" text-anchor="start">isbn_type</text><text x="152" y="-358.8" font-family="Arial" font-size="14" text-anchor="start">doi_asserted_by</text><text x="152" y="-343.8" font-family="Arial" font-size="14" text-anchor="start">first_page</text><text x="152" y="-328.8" font-family="Arial" font-size="14" text-anchor="start">isbn</text><text x="152" y="-313.8" font-family="Arial" font-size="14" text-anchor="start">doi</text><text x="152" y="-298.8" font-family="Arial" font-size="14" text-anchor="start">component</text><text x="152" y="-283.8" font-family="Arial" font-size="14" text-anchor="start">article_title</text><text x="152" y="-268.8" font-family="Arial" font-size="14" text-anchor="start">volume_title</text><text x="152" y="-253.8" font-family="Arial" font-size="14" text-anchor="start">volume</text><text x="152" y="-238.8" font-family="Arial" font-size="14" text-anchor="start">author</text><text x="152" y="-223.8" font-family="Arial" font-size="14" text-anchor="start">standard_designator</text><text x="152" y="-208.8" font-family="Arial" font-size="14" text-anchor="start">year</text><text x="152" y="-193.8" font-family="Arial" font-size="14" text-anchor="start">unstructured</text><text x="152" y="-178.8" font-family="Arial" font-size="14" text-anchor="start">edition</text><text x="152" y="-163.8" font-family="Arial" font-size="14" text-anchor="start">journal_title</text><text x="152" y="-148.8" font-family="Arial" font-size="14" text-anchor="start">issn_type</text><polygon fill="#000" stroke="#000" points="149 -492 149 -492 285 -492 285 -492 149 -492"/><polygon fill="none" stroke="#000" points="149 -142 149 -512 285 -512 285 -142 149 -142"/></g><g id="edge3" class="edge"><title>works-&gt;work_references</title><path fill="none" stroke="#000" d="M414.913,-673.221C376.188,-628.98 328.484,-569.908 294,-512 290.988,-506.942 288.036,-501.744 285.151,-496.448"/><text x="301.651" y="-500.248" font-family="Arial" font-size="14" text-anchor="middle">0…N</text><text x="410.413" y="-677.021" font-family="Arial" font-size="14" text-anchor="middle">1</text></g><g id="node5" class="node"><title>work_updates</title><polygon fill="#ffc62c" stroke="none" points="409 -377 303 -377 303 -277 409 -277 409 -377"/><text x="306" y="-363.8" font-family="Arial" font-size="14" font-weight="bold" text-anchor="start">work_updates</text><text x="317" y="-343.8" font-family="Arial" font-size="14" text-anchor="start">work_id</text><text x="317" y="-328.8" font-family="Arial" font-size="14" text-anchor="start">container_id</text><text x="317" y="-313.8" font-family="Arial" font-size="14" text-anchor="start">label</text><text x="317" y="-298.8" font-family="Arial" font-size="14" text-anchor="start">doi</text><text x="317" y="-283.8" font-family="Arial" font-size="14" text-anchor="start">timestamp</text><polygon fill="#000" stroke="#000" points="303 -357 303 -357 409 -357 409 -357 303 -357"/><polygon fill="none" stroke="#000" points="303 -277 303 -377 409 -377 409 -277 303 -277"/></g><g id="edge4" class="edge"><title>works-&gt;work_updates</title><path fill="none" stroke="#000" d="M433.195,-583.785C410.908,-509.938 386.122,-427.808 370.795,-377.021"/><text x="354.295" y="-380.821" font-family="Arial" font-size="14" text-anchor="middle">0…N</text><text x="428.695" y="-572.585" font-family="Arial" font-size="14" text-anchor="middle">1</text></g><g id="node6" class="node"><title>work_subjects</title><polygon fill="#ffc62c" stroke="none" points="536.5 -362 427.5 -362 427.5 -292 536.5 -292 536.5 -362"/><text x="431" y="-348.8" font-family="Arial" font-size="14" font-weight="bold" text-anchor="start">work_subjects</text><text x="443.5" y="-328.8" font-family="Arial" font-size="14" text-anchor="start">work_id</text><text x="443.5" y="-313.8" font-family="Arial" font-size="14" text-anchor="start">container_id</text><text x="443.5" y="-298.8" font-family="Arial" font-size="14" text-anchor="start">name</text><polygon fill="#000" stroke="#000" points="428 -342 428 -342 537 -342 537 -342 428 -342"/><polygon fill="none" stroke="#000" points="427.5 -292 427.5 -362 536.5 -362 536.5 -292 427.5 -292"/></g><g id="edge5" class="edge"><title>works-&gt;work_subjects</title><path fill="none" stroke="#000" d="M482,-583.785C482,-502.141 482,-410.371 482,-362.029"/><text x="465.5" y="-365.829" font-family="Arial" font-size="14" text-anchor="middle">0…N</text><text x="477.5" y="-572.585" font-family="Arial" font-size="14" text-anchor="middle">1</text></g><g id="node7" class="node"><title>work_funders</title><polygon fill="#ffc62c" stroke="none" points="657.5 -377 554.5 -377 554.5 -277 657.5 -277 657.5 -377"/><text x="558" y="-363.8" font-family="Arial" font-size="14" font-weight="bold" text-anchor="start">work_funders</text><text x="567.5" y="-343.8" font-family="Arial" font-size="14" text-anchor="start">id</text><text x="567.5" y="-328.8" font-family="Arial" font-size="14" text-anchor="start">container_id</text><text x="567.5" y="-313.8" font-family="Arial" font-size="14" text-anchor="start">work_id</text><text x="567.5" y="-298.8" font-family="Arial" font-size="14" text-anchor="start">doi</text><text x="567.5" y="-283.8" font-family="Arial" font-size="14" text-anchor="start">name</text><polygon fill="#000" stroke="#000" points="555 -357 555 -357 658 -357 658 -357 555 -357"/><polygon fill="none" stroke="#000" points="554.5 -277 554.5 -377 657.5 -377 657.5 -277 554.5 -277"/></g><g id="edge6" class="edge"><title>works-&gt;work_funders</title><path fill="none" stroke="#000" d="M530.03,-583.785C551.963,-509.938 576.356,-427.808 591.44,-377.021"/><text x="574.94" y="-380.821" font-family="Arial" font-size="14" text-anchor="middle">0…N</text><text x="525.53" y="-572.585" font-family="Arial" font-size="14" text-anchor="middle">1</text></g><g id="node8" class="node"><title>work_licenses</title><polygon fill="#ffc62c" stroke="none" points="784 -377 676 -377 676 -277 784 -277 784 -377"/><text x="679.5" y="-363.8" font-family="Arial" font-size="14" font-weight="bold" text-anchor="start">work_licenses</text><text x="679" y="-343.8" font-family="Arial" font-size="14" text-anchor="start">work_id</text><text x="679" y="-328.8" font-family="Arial" font-size="14" text-anchor="start">container_id</text><text x="679" y="-313.8" font-family="Arial" font-size="14" text-anchor="start">url</text><text x="679" y="-298.8" font-family="Arial" font-size="14" text-anchor="start">start_timestamp</text><text x="679" y="-283.8" font-family="Arial" font-size="14" text-anchor="start">delay_in_days</text><polygon fill="#000" stroke="#000" points="676 -357 676 -357 784 -357 784 -357 676 -357"/><polygon fill="none" stroke="#000" points="676 -277 676 -377 784 -377 784 -277 676 -277"/></g><g id="edge7" class="edge"><title>works-&gt;work_licenses</title><path fill="none" stroke="#000" d="M549.131,-674.114C587.747,-630.07 634.83,-570.893 667,-512 690.551,-468.885 707.682,-415.342 718.083,-377.152"/><text x="701.583" y="-380.952" font-family="Arial" font-size="14" text-anchor="middle">0…N</text><text x="553.631" y="-677.914" font-family="Arial" font-size="14" text-anchor="middle">1</text></g><g id="node9" class="node"><title>work_links</title><polygon fill="#ffc62c" stroke="none" points="890 -369.5 802 -369.5 802 -284.5 890 -284.5 890 -369.5"/><text x="808" y="-355.8" font-family="Arial" font-size="14" font-weight="bold" text-anchor="start">work_links</text><text x="805" y="-335.8" font-family="Arial" font-size="14" text-anchor="start">work_id</text><text x="805" y="-320.8" font-family="Arial" font-size="14" text-anchor="start">container_id</text><text x="805" y="-305.8" font-family="Arial" font-size="14" text-anchor="start">url</text><text x="805" y="-290.8" font-family="Arial" font-size="14" text-anchor="start">content_type</text><polygon fill="#000" stroke="#000" points="802 -349 802 -349 890 -349 890 -349 802 -349"/><polygon fill="none" stroke="#000" points="802 -284.5 802 -369.5 890 -369.5 890 -284.5 802 -284.5"/></g><g id="edge8" class="edge"><title>works-&gt;work_links</title><path fill="none" stroke="#000" d="M549.276,-712.026C620.191,-673.351 730.148,-603.161 793,-512 822.72,-468.894 835.931,-409.182 841.698,-369.614"/><text x="825.198" y="-373.414" font-family="Arial" font-size="14" text-anchor="middle">0…N</text><text x="553.776" y="-715.826" font-family="Arial" font-size="14" text-anchor="middle">1</text></g><g id="node3" class="node"><title>author_affiliations</title><polygon fill="#ffc62c" stroke="none" points="132 -70 0 -70 0 0 132 0 132 -70"/><text x="3" y="-56.8" font-family="Arial" font-size="14" font-weight="bold" text-anchor="start">author_affiliations</text><text x="27" y="-36.8" font-family="Arial" font-size="14" text-anchor="start">author_id</text><text x="27" y="-21.8" font-family="Arial" font-size="14" text-anchor="start">container_id</text><text x="27" y="-6.8" font-family="Arial" font-size="14" text-anchor="start">name</text><polygon fill="#000" stroke="#000" points="0 -50 0 -50 132 -50 132 -50 0 -50"/><polygon fill="none" stroke="#000" points="0 0 0 -70 132 -70 132 0 0 0"/></g><g id="edge2" class="edge"><title>work_authors-&gt;author_affiliations</title><path fill="none" stroke="#000" d="M66,-231.845C66,-176.441 66,-109.696 66,-70.1697"/><text x="49.5" y="-73.97" font-family="Arial" font-size="14" text-anchor="middle">1…N</text><text x="61.5" y="-220.645" font-family="Arial" font-size="14" text-anchor="middle">1</text></g><g id="node10" class="node"><title>funder_awards</title><polygon fill="#ffc62c" stroke="none" points="662 -70 550 -70 550 0 662 0 662 -70"/><text x="553" y="-56.8" font-family="Arial" font-size="14" font-weight="bold" text-anchor="start">funder_awards</text><text x="567" y="-36.8" font-family="Arial" font-size="14" text-anchor="start">funder_id</text><text x="567" y="-21.8" font-family="Arial" font-size="14" text-anchor="start">container_id</text><text x="567" y="-6.8" font-family="Arial" font-size="14" text-anchor="start">name</text><polygon fill="#000" stroke="#000" points="550 -50 550 -50 662 -50 662 -50 550 -50"/><polygon fill="none" stroke="#000" points="550 0 550 -70 662 -70 662 0 550 0"/></g><g id="edge9" class="edge"><title>work_funders-&gt;funder_awards</title><path fill="none" stroke="#000" d="M606,-276.805C606,-218.145 606,-121.62 606,-70.4079"/><text x="589.5" y="-74.208" font-family="Arial" font-size="14" text-anchor="middle">0…N</text><text x="601.5" y="-265.605" font-family="Arial" font-size="14" text-anchor="middle">1</text></g></g></svg>