<svg xmlns="http://www.w3.org/2000/svg" xmlns:xlink="http://www.w3.org/1999/xlink" width="1256pt" height="1936" viewBox="0 0 1256 1452"><g id="graph0" class="graph" transform="scale(1 1) rotate(0) translate(4 1448)"><title>D</title><polygon fill="#fff" stroke="none" points="-4 4 -4 -1448 1252 -1448 1252 4 -4 4"/><g id="node1" class="node"><title>Alexandria3k tables</title><polygon fill="#d3d3d3" stroke="#000" points="1248 -1444 1108 -1444 1108 -1408 1248 -1408 1248 -1444"/><text x="1178" y="-1422.3" font-family="Arial" font-size="14" text-anchor="middle">Alexandria3k tables</text></g><g id="node2" class="node"><title>asjcs</title><polygon fill="#d3d3d3" stroke="none" points="125.5 -212 16.5 -212 16.5 -127 125.5 -127 125.5 -212"/><text x="53" y="-198.3" font-family="Arial" font-size="14" font-weight="bold" text-anchor="start">asjcs</text><text x="20" y="-178.3" font-family="Arial" font-size="14" text-anchor="start">id</text><text x="20" y="-163.3" font-family="Arial" font-size="14" text-anchor="start">field</text><text x="20" y="-148.3" font-family="Arial" font-size="14" text-anchor="start">subject_area_id</text><text x="20" y="-133.3" font-family="Arial" font-size="14" text-anchor="start">general_field_id</text><polygon fill="#000" stroke="#000" points="17 -191.5 17 -191.5 126 -191.5 126 -191.5 17 -191.5"/><polygon fill="none" stroke="#000" points="16.5 -127 16.5 -212 125.5 -212 125.5 -127 16.5 -127"/></g><g id="node4" class="node"><title>asjc_general_fields</title><polygon fill="#d3d3d3" stroke="none" points="142 -55 0 -55 0 0 142 0 142 -55"/><text x="3" y="-41.3" font-family="Arial" font-size="14" font-weight="bold" text-anchor="start">asjc_general_fields</text><text x="53" y="-21.3" font-family="Arial" font-size="14" text-anchor="start">id</text><text x="53" y="-6.3" font-family="Arial" font-size="14" text-anchor="start">name</text><polygon fill="#000" stroke="#000" points="0 -34.5 0 -34.5 142 -34.5 142 -34.5 0 -34.5"/><polygon fill="none" stroke="#000" points="0 0 0 -55 142 -55 142 0 0 0"/></g><g id="edge1" class="edge"><title>asjcs-&gt;asjc_general_fields</title><path fill="none" stroke="#000" d="M71,-126.874C71,-103.661 71,-75.4365 71,-55.1831"/><text x="66.5" y="-58.983" font-family="Arial" font-size="14" text-anchor="middle">1</text><text x="54.5" y="-115.674" font-family="Arial" font-size="14" text-anchor="middle">1…N</text></g><g id="node5" class="node"><title>asjc_subject_areas</title><polygon fill="#d3d3d3" stroke="none" points="302 -55 160 -55 160 0 302 0 302 -55"/><text x="163" y="-41.3" font-family="Arial" font-size="14" font-weight="bold" text-anchor="start">asjc_subject_areas</text><text x="213" y="-21.3" font-family="Arial" font-size="14" text-anchor="start">id</text><text x="213" y="-6.3" font-family="Arial" font-size="14" text-anchor="start">name</text><polygon fill="#000" stroke="#000" points="160 -34.5 160 -34.5 302 -34.5 302 -34.5 160 -34.5"/><polygon fill="none" stroke="#000" points="160 0 160 -55 302 -55 302 0 160 0"/></g><g id="edge2" class="edge"><title>asjcs-&gt;asjc_subject_areas</title><path fill="none" stroke="#000" d="M118.572,-126.874C145.102,-103.661 177.358,-75.4365 200.505,-55.1831"/><text x="196.005" y="-58.983" font-family="Arial" font-size="14" text-anchor="middle">1</text><text x="102.072" y="-115.674" font-family="Arial" font-size="14" text-anchor="middle">1…N</text></g><g id="node3" class="node"><title>works_asjcs</title><polygon fill="#d3d3d3" stroke="none" points="118 -729 24 -729 24 -674 118 -674 118 -729"/><text x="27" y="-715.3" font-family="Arial" font-size="14" font-weight="bold" text-anchor="start">works_asjcs</text><text x="46.5" y="-695.3" font-family="Arial" font-size="14" text-anchor="start">work_id</text><text x="46.5" y="-680.3" font-family="Arial" font-size="14" text-anchor="start">asjc_id</text><polygon fill="#000" stroke="#000" points="24 -708.5 24 -708.5 118 -708.5 118 -708.5 24 -708.5"/><polygon fill="none" stroke="#000" points="24 -674 24 -729 118 -729 118 -674 24 -674"/></g><g id="edge13" class="edge"><title>works_asjcs-&gt;asjcs</title><path fill="none" stroke="#000" d="M71,-673.854C71,-587.79 71,-316.787 71,-212.225"/><text x="66.5" y="-216.025" font-family="Arial" font-size="14" text-anchor="middle">1</text><text x="54.5" y="-662.654" font-family="Arial" font-size="14" text-anchor="middle">0…N</text></g><g id="node6" class="node"><title>work_authors_rors</title><polygon fill="#d3d3d3" stroke="none" points="886.5 -729 745.5 -729 745.5 -674 886.5 -674 886.5 -729"/><text x="749" y="-715.3" font-family="Arial" font-size="14" font-weight="bold" text-anchor="start">work_authors_rors</text><text x="768" y="-695.3" font-family="Arial" font-size="14" text-anchor="start">ror_id</text><text x="768" y="-680.3" font-family="Arial" font-size="14" text-anchor="start">work_author_id</text><polygon fill="#000" stroke="#000" points="746 -708.5 746 -708.5 887 -708.5 887 -708.5 746 -708.5"/><polygon fill="none" stroke="#000" points="745.5 -674 745.5 -729 886.5 -729 886.5 -674 745.5 -674"/></g><g id="node9" class="node"><title>work_authors</title><polygon fill="#ffc62c" stroke="#000" points="244.5 -187.5 143.5 -187.5 143.5 -151.5 244.5 -151.5 244.5 -187.5"/><text x="194" y="-165.8" font-family="Arial" font-size="14" text-anchor="middle">work_authors</text></g><g id="edge9" class="edge"><title>work_authors_rors-&gt;work_authors</title><path fill="none" stroke="#000" d="M819.986,-673.851C829.33,-600.421 844.364,-393.381 737,-284 668.44,-214.152 366.466,-183.67 244.931,-174.074"/><text x="249.431" y="-177.874" font-family="Arial" font-size="14" text-anchor="middle">1</text><text x="803.486" y="-662.651" font-family="Arial" font-size="14" text-anchor="middle">0…N</text></g><g id="node7" class="node"><title>Main Crossref tables</title><polygon fill="#ffc62c" stroke="#000" points="549.5 -1444 402.5 -1444 402.5 -1408 549.5 -1408 549.5 -1444"/><text x="476" y="-1422.3" font-family="Arial" font-size="14" text-anchor="middle">Main Crossref tables</text></g><g id="node20" class="node"><title>Additional Crossref tables</title><polygon fill="#3db1c8" stroke="#000" points="748 -1444 568 -1444 568 -1408 748 -1408 748 -1444"/><text x="658" y="-1422.3" font-family="Arial" font-size="14" text-anchor="middle">Additional Crossref tables</text></g><g id="node8" class="node"><title>works</title><polygon fill="#ffc62c" stroke="#000" points="98 -1281.5 44 -1281.5 44 -1245.5 98 -1245.5 98 -1281.5"/><text x="71" y="-1259.8" font-family="Arial" font-size="14" text-anchor="middle">works</text></g><g id="edge12" class="edge"><title>works-&gt;works_asjcs</title><path fill="none" stroke="#000" d="M71,-1245.43C71,-1165.42 71,-827.22 71,-729.217"/><text x="54.5" y="-733.017" font-family="Arial" font-size="14" text-anchor="middle">0…N</text><text x="66.5" y="-1234.23" font-family="Arial" font-size="14" text-anchor="middle">1</text></g><g id="node14" class="node"><title>person_works</title><polygon fill="#a6ce39" stroke="#000" points="242 -719.5 136 -719.5 136 -683.5 242 -683.5 242 -719.5"/><text x="189" y="-697.8" font-family="Arial" font-size="14" text-anchor="middle">person_works</text></g><g id="edge11" class="edge"><title>works-&gt;person_works</title><path fill="none" stroke="#000" d="M79.1968,-1245.25C91.464,-1218.72 114.491,-1166.04 127,-1119 167.301,-967.455 183.594,-777.458 187.818,-719.84"/><text x="172.318" y="-723.64" font-family="Arial" font-size="14" text-anchor="middle">0…1</text><text x="91.697" y="-1234.05" font-family="Arial" font-size="14" text-anchor="middle">0..1</text></g><g id="node19" class="node"><title>open_access_journals</title><polygon fill="#fa9a87" stroke="none" points="475.5 -1119 260.5 -1119 260.5 -284 475.5 -284 475.5 -1119"/><text x="289" y="-1105.3" font-family="Arial" font-size="14" font-weight="bold" text-anchor="start">open_access_journals</text><text x="264" y="-1085.3" font-family="Arial" font-size="14" text-anchor="start">name</text><text x="264" y="-1070.3" font-family="Arial" font-size="14" text-anchor="start">url</text><text x="264" y="-1055.3" font-family="Arial" font-size="14" text-anchor="start">doaj_ur</text><text x="264" y="-1040.3" font-family="Arial" font-size="14" text-anchor="start">oaj_start</text><text x="264" y="-1025.3" font-family="Arial" font-size="14" text-anchor="start">alternative_name</text><text x="264" y="-1010.3" font-family="Arial" font-size="14" text-anchor="start">issn_print</text><text x="264" y="-995.3" font-family="Arial" font-size="14" text-anchor="start">issn_eprint</text><text x="264" y="-980.3" font-family="Arial" font-size="14" text-anchor="start">keywords</text><text x="264" y="-965.3" font-family="Arial" font-size="14" text-anchor="start">languages</text><text x="264" y="-950.3" font-family="Arial" font-size="14" text-anchor="start">publisher</text><text x="264" y="-935.3" font-family="Arial" font-size="14" text-anchor="start">pubisher_country</text><text x="264" y="-920.3" font-family="Arial" font-size="14" text-anchor="start">society</text><text x="264" y="-905.3" font-family="Arial" font-size="14" text-anchor="start">society_country</text><text x="264" y="-890.3" font-family="Arial" font-size="14" text-anchor="start">license</text><text x="264" y="-875.3" font-family="Arial" font-size="14" text-anchor="start">license_attributes</text><text x="264" y="-860.3" font-family="Arial" font-size="14" text-anchor="start">license_terms_url</text><text x="264" y="-845.3" font-family="Arial" font-size="14" text-anchor="start">license_embedded</text><text x="264" y="-830.3" font-family="Arial" font-size="14" text-anchor="start">example_license_embedded_url</text><text x="264" y="-815.3" font-family="Arial" font-size="14" text-anchor="start">author_copyright</text><text x="264" y="-800.3" font-family="Arial" font-size="14" text-anchor="start">copyright_info_url</text><text x="264" y="-785.3" font-family="Arial" font-size="14" text-anchor="start">review_process</text><text x="264" y="-770.3" font-family="Arial" font-size="14" text-anchor="start">review_process_url</text><text x="264" y="-755.3" font-family="Arial" font-size="14" text-anchor="start">plagiarism_screening</text><text x="264" y="-740.3" font-family="Arial" font-size="14" text-anchor="start">plagiarism_info_url</text><text x="264" y="-725.3" font-family="Arial" font-size="14" text-anchor="start">aims_scope_url</text><text x="264" y="-710.3" font-family="Arial" font-size="14" text-anchor="start">board_url</text><text x="264" y="-695.3" font-family="Arial" font-size="14" text-anchor="start">author_instructions_url</text><text x="264" y="-680.3" font-family="Arial" font-size="14" text-anchor="start">sub_pub_weeks</text><text x="264" y="-665.3" font-family="Arial" font-size="14" text-anchor="start">apc</text><text x="264" y="-650.3" font-family="Arial" font-size="14" text-anchor="start">apc_info_url</text><text x="264" y="-635.3" font-family="Arial" font-size="14" text-anchor="start">apc_amount</text><text x="264" y="-620.3" font-family="Arial" font-size="14" text-anchor="start">apc_waiver</text><text x="264" y="-605.3" font-family="Arial" font-size="14" text-anchor="start">apc_waiver_info_url</text><text x="264" y="-590.3" font-family="Arial" font-size="14" text-anchor="start">other_fees</text><text x="264" y="-575.3" font-family="Arial" font-size="14" text-anchor="start">other_fees_info_url</text><text x="264" y="-560.3" font-family="Arial" font-size="14" text-anchor="start">preservation_services</text><text x="264" y="-545.3" font-family="Arial" font-size="14" text-anchor="start">preservation_national_library</text><text x="264" y="-530.3" font-family="Arial" font-size="14" text-anchor="start">preservation_info_url</text><text x="264" y="-515.3" font-family="Arial" font-size="14" text-anchor="start">deposit_policy_directory</text><text x="264" y="-500.3" font-family="Arial" font-size="14" text-anchor="start">deposit_policy_directory_url</text><text x="264" y="-485.3" font-family="Arial" font-size="14" text-anchor="start">persistent_article_identifiers</text><text x="264" y="-470.3" font-family="Arial" font-size="14" text-anchor="start">orcid_in_metadata</text><text x="264" y="-455.3" font-family="Arial" font-size="14" text-anchor="start">i4oc_compliance</text><text x="264" y="-440.3" font-family="Arial" font-size="14" text-anchor="start">doaj_oa_compliance</text><text x="264" y="-425.3" font-family="Arial" font-size="14" text-anchor="start">oa_statement_url</text><text x="264" y="-410.3" font-family="Arial" font-size="14" text-anchor="start">continues</text><text x="264" y="-395.3" font-family="Arial" font-size="14" text-anchor="start">continued_by</text><text x="264" y="-380.3" font-family="Arial" font-size="14" text-anchor="start">lcc_codes</text><text x="264" y="-365.3" font-family="Arial" font-size="14" text-anchor="start">subjects</text><text x="264" y="-350.3" font-family="Arial" font-size="14" text-anchor="start">doaj_Seal</text><text x="264" y="-335.3" font-family="Arial" font-size="14" text-anchor="start">added_on</text><text x="264" y="-320.3" font-family="Arial" font-size="14" text-anchor="start">last_updated</text><text x="264" y="-305.3" font-family="Arial" font-size="14" text-anchor="start">article_records_number</text><text x="264" y="-290.3" font-family="Arial" font-size="14" text-anchor="start">most_recent_addition</text><polygon fill="#000" stroke="#000" points="261 -1098.5 261 -1098.5 476 -1098.5 476 -1098.5 261 -1098.5"/><polygon fill="none" stroke="#000" points="260.5 -284 260.5 -1119 475.5 -1119 475.5 -284 260.5 -284"/></g><g id="edge3" class="edge"><title>works-&gt;open_access_journals</title><path fill="none" stroke="#000" d="M76.1604,-1245.3C81.6382,-1229.51 91.6481,-1206.31 107,-1191 157.667,-1140.47 205.425,-1174.16 251,-1119 254.229,-1115.09 257.369,-1111.1 260.423,-1107.03"/><text x="244.923" y="-1110.83" font-family="Arial" font-size="14" text-anchor="middle">0…1</text><text x="76.16" y="-1234.1" font-family="Arial" font-size="14" text-anchor="middle">1</text></g><g id="node23" class="node"><title>journals_issns</title><polygon fill="#3db1c8" stroke="none" points="602.5 -736.5 493.5 -736.5 493.5 -666.5 602.5 -666.5 602.5 -736.5"/><text x="497" y="-723.3" font-family="Arial" font-size="14" font-weight="bold" text-anchor="start">journals_issns</text><text x="518" y="-703.3" font-family="Arial" font-size="14" text-anchor="start">journal_id</text><text x="518" y="-688.3" font-family="Arial" font-size="14" text-anchor="start">issn</text><text x="518" y="-673.3" font-family="Arial" font-size="14" text-anchor="start">issn_type</text><polygon fill="#000" stroke="#000" points="494 -716.5 494 -716.5 603 -716.5 603 -716.5 494 -716.5"/><polygon fill="none" stroke="#000" points="493.5 -666.5 493.5 -736.5 602.5 -736.5 602.5 -666.5 493.5 -666.5"/></g><g id="edge8" class="edge"><title>works-&gt;journals_issns</title><path fill="none" stroke="#000" d="M74.9906,-1245.22C79.7441,-1228.67 89.359,-1204.31 107,-1191 243.53,-1088.01 366.396,-1242.21 485,-1119 587.196,-1012.83 567.544,-815.758 554.545,-736.658"/><text x="539.045" y="-740.458" font-family="Arial" font-size="14" text-anchor="middle">0…1</text><text x="74.991" y="-1234.02" font-family="Arial" font-size="14" text-anchor="middle">1</text></g><g id="node13" class="node"><title>persons</title><polygon fill="#a6ce39" stroke="#000" points="388 -45.5 320 -45.5 320 -9.5 388 -9.5 388 -45.5"/><text x="354" y="-23.8" font-family="Arial" font-size="14" text-anchor="middle">persons</text></g><g id="edge6" class="edge"><title>work_authors-&gt;persons</title><path fill="none" stroke="#000" d="M213.619,-151.333C244.327,-124.463 303.414,-72.7632 334.22,-45.8072"/><text x="318.72" y="-49.607" font-family="Arial" font-size="14" text-anchor="middle">0…1</text><text x="209.119" y="-140.133" font-family="Arial" font-size="14" text-anchor="middle">1</text></g><g id="node10" class="node"><title>work_subjects</title><polygon fill="#ffc62c" stroke="#000" points="727.5 -719.5 620.5 -719.5 620.5 -683.5 727.5 -683.5 727.5 -719.5"/><text x="674" y="-697.8" font-family="Arial" font-size="14" text-anchor="middle">work_subjects</text></g><g id="edge14" class="edge"><title>work_subjects-&gt;asjcs</title><path fill="none" stroke="#000" d="M677.75,-683.149C690.386,-619.513 724.595,-396.789 612,-284 460.216,-131.953 334.612,-288.887 134,-212 131.187,-210.922 128.371,-209.703 125.575,-208.376"/><text x="130.075" y="-212.176" font-family="Arial" font-size="14" text-anchor="middle">1</text><text x="673.25" y="-671.949" font-family="Arial" font-size="14" text-anchor="middle">1</text></g><g id="node11" class="node"><title>work_funders</title><polygon fill="#ffc62c" stroke="#000" points="528 -1281.5 426 -1281.5 426 -1245.5 528 -1245.5 528 -1281.5"/><text x="477" y="-1259.8" font-family="Arial" font-size="14" text-anchor="middle">work_funders</text></g><g id="node17" class="node"><title>ror_funder_ids</title><polygon fill="#53baa1" stroke="#000" points="1015 -719.5 905 -719.5 905 -683.5 1015 -683.5 1015 -719.5"/><text x="960" y="-697.8" font-family="Arial" font-size="14" text-anchor="middle">ror_funder_ids</text></g><g id="edge5" class="edge"><title>work_funders-&gt;ror_funder_ids</title><path fill="none" stroke="#000" d="M528.205,-1261.1C617.837,-1255.69 802.506,-1230.76 896,-1119 998.099,-996.957 972.907,-781.647 963.02,-719.646"/><text x="947.52" y="-723.446" font-family="Arial" font-size="14" text-anchor="middle">0…1</text><text x="532.705" y="-1264.9" font-family="Arial" font-size="14" text-anchor="middle">1</text></g><g id="node21" class="node"><title>funder_names</title><polygon fill="#3db1c8" stroke="none" points="1140.5 -736.5 1033.5 -736.5 1033.5 -666.5 1140.5 -666.5 1140.5 -736.5"/><text x="1037" y="-723.3" font-family="Arial" font-size="14" font-weight="bold" text-anchor="start">funder_names</text><text x="1059.5" y="-703.3" font-family="Arial" font-size="14" text-anchor="start">url</text><text x="1059.5" y="-688.3" font-family="Arial" font-size="14" text-anchor="start">name</text><text x="1059.5" y="-673.3" font-family="Arial" font-size="14" text-anchor="start">replaced</text><polygon fill="#000" stroke="#000" points="1034 -716.5 1034 -716.5 1141 -716.5 1141 -716.5 1034 -716.5"/><polygon fill="none" stroke="#000" points="1033.5 -666.5 1033.5 -736.5 1140.5 -736.5 1140.5 -666.5 1033.5 -666.5"/></g><g id="edge4" class="edge"><title>work_funders-&gt;funder_names</title><path fill="none" stroke="#000" d="M528.154,-1256.24C650.96,-1240.15 957.22,-1193.3 1024,-1119 1122.26,-1009.68 1105.06,-815.266 1093.13,-736.775"/><text x="1077.63" y="-740.575" font-family="Arial" font-size="14" text-anchor="middle">0…1</text><text x="532.654" y="-1245.04" font-family="Arial" font-size="14" text-anchor="middle">1</text></g><g id="node12" class="node"><title>ORCID tables</title><polygon fill="#a6ce39" stroke="#000" points="1090 -1444 984 -1444 984 -1408 1090 -1408 1090 -1444"/><text x="1037" y="-1422.3" font-family="Arial" font-size="14" text-anchor="middle">ORCID tables</text></g><g id="node15" class="node"><title>ROR tables</title><polygon fill="#53baa1" stroke="#000" points="965.5 -1444 874.5 -1444 874.5 -1408 965.5 -1408 965.5 -1444"/><text x="920" y="-1422.3" font-family="Arial" font-size="14" text-anchor="middle">ROR tables</text></g><g id="node16" class="node"><title>research_organizations</title><polygon fill="#53baa1" stroke="#000" points="408 -1281.5 244 -1281.5 244 -1245.5 408 -1245.5 408 -1281.5"/><text x="326" y="-1259.8" font-family="Arial" font-size="14" text-anchor="middle">research_organizations</text></g><g id="edge10" class="edge"><title>research_organizations-&gt;work_authors_rors</title><path fill="none" stroke="#000" d="M342.866,-1245.39C360.031,-1228.97 388.146,-1204.71 417,-1191 548.666,-1128.43 635.68,-1223.81 737,-1119 843.527,-1008.8 829.017,-802.275 819.898,-729.064"/><text x="803.398" y="-732.864" font-family="Arial" font-size="14" text-anchor="middle">0…N</text><text x="338.366" y="-1234.19" font-family="Arial" font-size="14" text-anchor="middle">1</text></g><g id="node18" class="node"><title>DOAJ table</title><polygon fill="#fa9a87" stroke="#000" points="856 -1444 766 -1444 766 -1408 856 -1408 856 -1444"/><text x="811" y="-1422.3" font-family="Arial" font-size="14" text-anchor="middle">DOAJ table</text></g><g id="node22" class="node"><title>journal_names</title><polygon fill="#3db1c8" stroke="none" points="226 -1336 116 -1336 116 -1191 226 -1191 226 -1336"/><text x="119" y="-1322.3" font-family="Arial" font-size="14" font-weight="bold" text-anchor="start">journal_names</text><text x="120" y="-1302.3" font-family="Arial" font-size="14" text-anchor="start">title</text><text x="120" y="-1287.3" font-family="Arial" font-size="14" text-anchor="start">id</text><text x="120" y="-1272.3" font-family="Arial" font-size="14" text-anchor="start">publisher</text><text x="120" y="-1257.3" font-family="Arial" font-size="14" text-anchor="start">issn_print</text><text x="120" y="-1242.3" font-family="Arial" font-size="14" text-anchor="start">issn_eprint</text><text x="120" y="-1227.3" font-family="Arial" font-size="14" text-anchor="start">issns_additional</text><text x="120" y="-1212.3" font-family="Arial" font-size="14" text-anchor="start">doi</text><text x="120" y="-1197.3" font-family="Arial" font-size="14" text-anchor="start">volume_info</text><polygon fill="#000" stroke="#000" points="116 -1315.5 116 -1315.5 226 -1315.5 226 -1315.5 116 -1315.5"/><polygon fill="none" stroke="#000" points="116 -1191 116 -1336 226 -1336 226 -1191 116 -1191"/></g><g id="edge7" class="edge"><title>journal_names-&gt;journals_issns</title><path fill="none" stroke="#000" d="M226.288,-1197.07C229.129,-1194.9 232.037,-1192.86 235,-1191 332.932,-1129.53 408.735,-1205.91 485,-1119 581.954,-1008.51 565.498,-814.765 553.951,-736.614"/><text x="570.451" y="-740.414" font-family="Arial" font-size="14" text-anchor="middle">1…N</text><text x="239.288" y="-1200.87" font-family="Arial" font-size="14" text-anchor="middle">1..N</text></g></g></svg>